<mxfile host="app.diagrams.net" modified="2023-09-08T02:44:56.947Z" agent="Mozilla/5.0 (Macintosh; Intel Mac OS X 10_15_7) AppleWebKit/537.36 (KHTML, like Gecko) Chrome/114.0.0.0 Safari/537.36" version="21.7.2" etag="Ebg3qQ-RtrJOH6KFLH_f" type="github">
  <diagram name="第 1 页" id="zHNKLCvGlS3MTuVuz5wW">
    <mxGraphModel>
      <root>
        <mxCell id="0" />
        <mxCell id="1" parent="0" />
      </root>
    </mxGraphModel>
  </diagram>
</mxfile>
